<?xml version="1.0" standalone="no"?>
<!DOCTYPE svg PUBLIC "-//W3C//DTD SVG 20010904//EN"
 "http://www.w3.org/TR/2001/REC-SVG-20010904/DTD/svg10.dtd">
<svg version="1.0" xmlns="http://www.w3.org/2000/svg"
 width="225.000000pt" height="225.000000pt" viewBox="0 0 225.000000 225.000000"
 preserveAspectRatio="xMidYMid meet">

<g transform="translate(0.000000,225.000000) scale(0.100000,-0.100000)"
fill="#000000" stroke="none">
<path d="M420 2003 c0 -15 137 -633 141 -637 2 -2 127 -65 277 -140 149 -75
272 -138 272 -140 0 -1 -109 27 -242 65 -134 37 -244 66 -246 64 -2 -2 49 -94
113 -204 90 -154 121 -200 134 -197 9 3 66 17 126 31 61 14 117 28 125 31 32
11 -12 -21 -132 -95 l-123 -76 -138 -224 c-76 -122 -137 -224 -135 -226 2 -2
236 127 520 287 l518 290 0 218 0 219 99 153 c55 84 98 154 96 156 -2 2 -89
-14 -194 -35 l-190 -37 -73 -98 c-40 -54 -75 -97 -79 -96 -4 2 -191 152 -415
333 -225 182 -419 338 -431 348 -13 10 -23 15 -23 10z"/>
</g>
</svg>
